<svg width="93" height="42" viewBox="0 0 93 42" fill="none" xmlns="http://www.w3.org/2000/svg">
<path d="M3.276 38.072C3.108 38.072 2.924 38.068 2.724 38.06C2.532 38.052 2.336 38.04 2.136 38.024C1.944 38.008 1.752 37.988 1.56 37.964C1.368 37.94 1.192 37.908 1.032 37.868V29.804C1.192 29.764 1.368 29.732 1.56 29.708C1.752 29.684 1.944 29.664 2.136 29.648C2.336 29.632 2.532 29.62 2.724 29.612C2.916 29.604 3.096 29.6 3.264 29.6C3.744 29.6 4.192 29.636 4.608 29.708C5.032 29.78 5.396 29.904 5.7 30.08C6.012 30.248 6.256 30.472 6.432 30.752C6.608 31.032 6.696 31.376 6.696 31.784C6.696 32.24 6.588 32.616 6.372 32.912C6.156 33.2 5.868 33.416 5.508 33.56C5.996 33.704 6.384 33.932 6.672 34.244C6.96 34.556 7.104 34.996 7.104 35.564C7.104 36.396 6.796 37.024 6.18 37.448C5.572 37.864 4.604 38.072 3.276 38.072ZM2.184 34.124V37.052C2.272 37.06 2.376 37.068 2.496 37.076C2.6 37.084 2.72 37.092 2.856 37.1C3 37.1 3.164 37.1 3.348 37.1C3.692 37.1 4.016 37.08 4.32 37.04C4.632 36.992 4.904 36.912 5.136 36.8C5.368 36.688 5.552 36.532 5.688 36.332C5.832 36.132 5.904 35.88 5.904 35.576C5.904 35.304 5.852 35.076 5.748 34.892C5.644 34.7 5.492 34.548 5.292 34.436C5.1 34.324 4.868 34.244 4.596 34.196C4.324 34.148 4.02 34.124 3.684 34.124H2.184ZM2.184 33.188H3.408C3.696 33.188 3.968 33.168 4.224 33.128C4.48 33.088 4.7 33.016 4.884 32.912C5.076 32.808 5.224 32.672 5.328 32.504C5.44 32.336 5.496 32.124 5.496 31.868C5.496 31.628 5.44 31.428 5.328 31.268C5.216 31.1 5.06 30.968 4.86 30.872C4.668 30.768 4.44 30.692 4.176 30.644C3.912 30.596 3.632 30.572 3.336 30.572C3.04 30.572 2.808 30.576 2.64 30.584C2.472 30.592 2.32 30.604 2.184 30.62V33.188ZM19.0989 38.18C18.5549 38.18 18.0829 38.096 17.6829 37.928C17.2829 37.76 16.9549 37.532 16.6989 37.244C16.4429 36.948 16.2509 36.6 16.1229 36.2C16.0029 35.8 15.9429 35.368 15.9429 34.904V29.684H17.1069V34.772C17.1069 35.604 17.2909 36.208 17.6589 36.584C18.0269 36.96 18.5069 37.148 19.0989 37.148C19.3949 37.148 19.6629 37.104 19.9029 37.016C20.1509 36.92 20.3629 36.776 20.5389 36.584C20.7149 36.392 20.8509 36.148 20.9469 35.852C21.0429 35.548 21.0909 35.188 21.0909 34.772V29.684H22.2549V34.904C22.2549 35.368 22.1909 35.8 22.0629 36.2C21.9429 36.6 21.7509 36.948 21.4869 37.244C21.2309 37.532 20.9029 37.76 20.5029 37.928C20.1109 38.096 19.6429 38.18 19.0989 38.18ZM31.5247 29.684H32.6887V38H31.5247V29.684ZM47.0113 36.992V38H42.0073V29.684H43.1713V36.992H47.0113ZM62.318 33.836C62.318 34.556 62.206 35.184 61.982 35.72C61.758 36.248 61.442 36.688 61.034 37.04C60.626 37.384 60.138 37.644 59.57 37.82C59.002 37.988 58.378 38.072 57.698 38.072C57.362 38.072 56.99 38.056 56.582 38.024C56.182 38 55.818 37.948 55.49 37.868V29.804C55.818 29.724 56.182 29.672 56.582 29.648C56.99 29.616 57.362 29.6 57.698 29.6C58.378 29.6 59.002 29.688 59.57 29.864C60.138 30.032 60.626 30.292 61.034 30.644C61.442 30.988 61.758 31.428 61.982 31.964C62.206 32.492 62.318 33.116 62.318 33.836ZM57.794 37.052C58.898 37.052 59.722 36.772 60.266 36.212C60.81 35.644 61.082 34.852 61.082 33.836C61.082 32.82 60.81 32.032 60.266 31.472C59.722 30.904 58.898 30.62 57.794 30.62C57.466 30.62 57.21 30.624 57.026 30.632C56.85 30.64 56.726 30.648 56.654 30.656V37.016C56.726 37.024 56.85 37.032 57.026 37.04C57.21 37.048 57.466 37.052 57.794 37.052Z" fill="white"/>
<path d="M4.72 18.46C4.86667 18.4733 5.03333 18.4867 5.22 18.5C5.42 18.5 5.65333 18.5 5.92 18.5C7.48 18.5 8.63333 18.1067 9.38 17.32C10.14 16.5333 10.52 15.4467 10.52 14.06C10.52 12.6067 10.16 11.5067 9.44 10.76C8.72 10.0133 7.58 9.64 6.02 9.64C5.80667 9.64 5.58667 9.64667 5.36 9.66C5.13333 9.66 4.92 9.67333 4.72 9.7V18.46ZM13.74 14.06C13.74 15.26 13.5533 16.3067 13.18 17.2C12.8067 18.0933 12.2733 18.8333 11.58 19.42C10.9 20.0067 10.0667 20.4467 9.08 20.74C8.09333 21.0333 6.98667 21.18 5.76 21.18C5.2 21.18 4.54667 21.1533 3.8 21.1C3.05333 21.06 2.32 20.9667 1.6 20.82V7.32C2.32 7.18667 3.06667 7.1 3.84 7.06C4.62667 7.00667 5.3 6.98 5.86 6.98C7.04667 6.98 8.12 7.11333 9.08 7.38C10.0533 7.64667 10.8867 8.06667 11.58 8.64C12.2733 9.21333 12.8067 9.94667 13.18 10.84C13.5533 11.7333 13.74 12.8067 13.74 14.06ZM16.3461 21V7.14H25.7061V9.76H19.4661V12.48H25.0061V15.04H19.4661V18.38H26.1661V21H16.3461ZM32.255 18.62C32.695 18.62 33.055 18.5867 33.335 18.52C33.6283 18.44 33.8617 18.34 34.035 18.22C34.2083 18.0867 34.3283 17.9333 34.395 17.76C34.4617 17.5867 34.495 17.3933 34.495 17.18C34.495 16.7267 34.2817 16.3533 33.855 16.06C33.4283 15.7533 32.695 15.4267 31.655 15.08C31.2017 14.92 30.7483 14.74 30.295 14.54C29.8417 14.3267 29.435 14.0667 29.075 13.76C28.715 13.44 28.4217 13.06 28.195 12.62C27.9683 12.1667 27.855 11.62 27.855 10.98C27.855 10.34 27.975 9.76667 28.215 9.26C28.455 8.74 28.795 8.3 29.235 7.94C29.675 7.58 30.2083 7.30667 30.835 7.12C31.4617 6.92 32.1683 6.82 32.955 6.82C33.8883 6.82 34.695 6.92 35.375 7.12C36.055 7.32 36.615 7.54 37.055 7.78L36.155 10.24C35.7683 10.04 35.335 9.86667 34.855 9.72C34.3883 9.56 33.8217 9.48 33.155 9.48C32.4083 9.48 31.8683 9.58667 31.535 9.8C31.215 10 31.055 10.3133 31.055 10.74C31.055 10.9933 31.115 11.2067 31.235 11.38C31.355 11.5533 31.5217 11.7133 31.735 11.86C31.9617 11.9933 32.215 12.12 32.495 12.24C32.7883 12.3467 33.1083 12.46 33.455 12.58C34.175 12.8467 34.8017 13.1133 35.335 13.38C35.8683 13.6333 36.3083 13.9333 36.655 14.28C37.015 14.6267 37.2817 15.0333 37.455 15.5C37.6283 15.9667 37.715 16.5333 37.715 17.2C37.715 18.4933 37.2617 19.5 36.355 20.22C35.4483 20.9267 34.0817 21.28 32.255 21.28C31.6417 21.28 31.0883 21.24 30.595 21.16C30.1017 21.0933 29.6617 21.0067 29.275 20.9C28.9017 20.7933 28.575 20.68 28.295 20.56C28.0283 20.44 27.8017 20.3267 27.615 20.22L28.495 17.74C28.9083 17.9667 29.415 18.1733 30.015 18.36C30.6283 18.5333 31.375 18.62 32.255 18.62ZM40.1156 7.14H43.2356V21H40.1156V7.14ZM53.2038 9.54C51.7504 9.54 50.6971 9.94667 50.0438 10.76C49.4038 11.56 49.0838 12.66 49.0838 14.06C49.0838 14.74 49.1638 15.36 49.3238 15.92C49.4838 16.4667 49.7238 16.94 50.0438 17.34C50.3638 17.74 50.7638 18.0533 51.2438 18.28C51.7238 18.4933 52.2838 18.6 52.9238 18.6C53.2704 18.6 53.5638 18.5933 53.8038 18.58C54.0571 18.5667 54.2771 18.54 54.4638 18.5V13.68H57.5838V20.54C57.2104 20.6867 56.6104 20.84 55.7838 21C54.9571 21.1733 53.9371 21.26 52.7238 21.26C51.6838 21.26 50.7371 21.1 49.8838 20.78C49.0438 20.46 48.3238 19.9933 47.7238 19.38C47.1238 18.7667 46.6571 18.0133 46.3238 17.12C46.0038 16.2267 45.8438 15.2067 45.8438 14.06C45.8438 12.9 46.0238 11.8733 46.3838 10.98C46.7438 10.0867 47.2371 9.33333 47.8638 8.72C48.4904 8.09333 49.2238 7.62 50.0638 7.3C50.9171 6.98 51.8238 6.82 52.7838 6.82C53.4371 6.82 54.0238 6.86667 54.5438 6.96C55.0771 7.04 55.5304 7.14 55.9038 7.26C56.2904 7.36667 56.6038 7.48 56.8438 7.6C57.0971 7.72 57.2771 7.81333 57.3838 7.88L56.4838 10.38C56.0571 10.1533 55.5638 9.96 55.0038 9.8C54.4571 9.62667 53.8571 9.54 53.2038 9.54ZM69.7867 21C68.8934 19.4133 67.9267 17.8467 66.8867 16.3C65.8467 14.7533 64.7401 13.2933 63.5667 11.92V21H60.4867V7.14H63.0267C63.4667 7.58 63.9534 8.12 64.4867 8.76C65.0201 9.4 65.5601 10.0867 66.1067 10.82C66.6667 11.54 67.2201 12.2933 67.7667 13.08C68.3134 13.8533 68.8267 14.6 69.3067 15.32V7.14H72.4067V21H69.7867ZM79.5086 17.32C79.5086 16.8133 79.5819 16.3533 79.7286 15.94C79.8753 15.5133 80.0686 15.1333 80.3086 14.8C80.5619 14.4533 80.8486 14.1533 81.1686 13.9C81.5019 13.6333 81.8486 13.4 82.2086 13.2C81.8886 12.8133 81.6019 12.4 81.3486 11.96C81.0953 11.5067 80.9686 11.0133 80.9686 10.48C80.9686 9.30667 81.3219 8.40667 82.0286 7.78C82.7353 7.14 83.7086 6.82 84.9486 6.82C85.5753 6.82 86.1219 6.90667 86.5886 7.08C87.0553 7.24 87.4419 7.46667 87.7486 7.76C88.0686 8.04 88.3086 8.37333 88.4686 8.76C88.6286 9.13333 88.7086 9.54 88.7086 9.98C88.7086 10.7933 88.4753 11.52 88.0086 12.16C87.5553 12.7867 86.9753 13.3133 86.2686 13.74L88.5086 15.98C88.6286 15.7133 88.7419 15.38 88.8486 14.98C88.9686 14.5667 89.0419 14.2067 89.0686 13.9L91.5486 14.22C91.5219 14.4733 91.4753 14.7533 91.4086 15.06C91.3419 15.3533 91.2553 15.6533 91.1486 15.96C91.0553 16.2667 90.9419 16.5733 90.8086 16.88C90.6886 17.1867 90.5553 17.4667 90.4086 17.72C90.8353 18.2 91.2486 18.7267 91.6486 19.3C92.0619 19.86 92.4153 20.4267 92.7086 21H89.6486C89.5419 20.8267 89.3953 20.6133 89.2086 20.36C89.0219 20.0933 88.8353 19.8667 88.6486 19.68C88.1153 20.1067 87.4953 20.4667 86.7886 20.76C86.0819 21.04 85.2886 21.18 84.4086 21.18C83.4753 21.18 82.6953 21.0667 82.0686 20.84C81.4419 20.6 80.9353 20.3 80.5486 19.94C80.1753 19.5667 79.9086 19.1533 79.7486 18.7C79.5886 18.2333 79.5086 17.7733 79.5086 17.32ZM82.2886 17.02C82.2886 17.22 82.3286 17.4267 82.4086 17.64C82.4886 17.8533 82.6153 18.0533 82.7886 18.24C82.9753 18.4133 83.2086 18.56 83.4886 18.68C83.7686 18.7867 84.1086 18.84 84.5086 18.84C85.0686 18.84 85.5553 18.7667 85.9686 18.62C86.3953 18.4733 86.7486 18.28 87.0286 18.04L83.8286 14.82C83.6419 14.9133 83.4553 15.0267 83.2686 15.16C83.0953 15.2933 82.9353 15.4533 82.7886 15.64C82.6419 15.8133 82.5219 16.0133 82.4286 16.24C82.3353 16.4667 82.2886 16.7267 82.2886 17.02ZM86.1686 10.12C86.1686 9.81333 86.0686 9.54 85.8686 9.3C85.6686 9.06 85.3353 8.94 84.8686 8.94C84.4419 8.94 84.1086 9.07333 83.8686 9.34C83.6419 9.59333 83.5286 9.92667 83.5286 10.34C83.5286 10.6867 83.6286 11.0267 83.8286 11.36C84.0286 11.68 84.2886 11.9867 84.6086 12.28C85.0353 12.04 85.4019 11.7533 85.7086 11.42C86.0153 11.0867 86.1686 10.6533 86.1686 10.12Z" fill="white"/>
</svg>
